<?xml version="1.0" encoding="utf-8"?>
<!-- Generator: Adobe Illustrator 16.0.0, SVG Export Plug-In . SVG Version: 6.00 Build 0)  -->
<!DOCTYPE svg PUBLIC "-//W3C//DTD SVG 1.1//EN" "http://www.w3.org/Graphics/SVG/1.1/DTD/svg11.dtd">
<svg version="1.1" xmlns="http://www.w3.org/2000/svg" xmlns:xlink="http://www.w3.org/1999/xlink" x="0px" y="0px" width="612px"
	 height="612px" viewBox="0 0 612 612" enable-background="new 0 0 612 612" xml:space="preserve">
<g id="Capa_1">
	<g>
		<g>
			<rect x="27.818" y="83.455" width="556.363" height="27.818"/>
			<rect x="55.636" y="27.818" width="500.727" height="27.818"/>
			<path d="M414.741,355.099c-2.394-3.755-7.205-4.646-10.793-2.112l-76.862,54.05c-1.779,1.252-4.2,0.752-5.313-1.168
				l-90.576-156.449c-2.17-3.783-5.647-3.811-7.678,0.083L55.581,517.696c-2.031,3.923-0.167,7.064,4.145,7.064h491.158
				c4.173,0,5.869-3.004,3.505-6.704L414.741,355.099z"/>
			<circle cx="486.818" cy="236.454" r="41.727"/>
			<path d="M608.105,139.091H3.922c-2.17,0-3.922,1.613-3.922,3.589v336.804c-0.263,1.324-0.263,2.707,0,4.031v97.078
				c0,1.976,1.752,3.588,3.922,3.588h604.184c2.142,0,3.895-1.612,3.895-3.588V142.68C612,140.704,610.247,139.091,608.105,139.091z
				 M584.181,556.363H27.818V166.909h556.363V556.363z"/>
		</g>
	</g>
</g>
<g id="Layer_2">
	<path d="M38.868,368.849c-2.252,3.679-4.484,7.396-6.739,11.105c-11.619,19.181-15.83,39.649-9.239,45.518
		c6.612,5.865,21.861-4.825,33.913-23.76c1.963-3.074,3.922-6.168,5.884-9.241c12.077-18.909,16.159-39.5,9.371-46.139
		C65.26,339.655,50.473,349.65,38.868,368.849z"/>
	<path d="M565.576,549.458c11.705-19.159,14.779-42.329,7.539-52.231c-7.252-9.91-22.461-2.911-34.537,15.998
		c-3.221,5.049-6.439,10.1-9.66,15.151c-12.077,18.909-15.663,42.255-7.539,51.793c8.149,9.563,24.617,1.402,36.303-17.753
		C560.313,558.08,562.956,553.751,565.576,549.458z"/>
	<path d="M102.549,523.145c-6.631-2.302-16.891,13.229-22.993,34.819c-0.722,2.501-1.407,5.047-2.121,7.542"/>
	<path d="M87.124,238.955c3.607-5.76,4.65-15.125,2.678-21.033c-1.983-5.916-13.058,4.695-24.886,23.761
		c-5.113,8.25-10.249,16.538-15.381,24.793c-11.804,19.081-19.703,38.285-17.519,42.854c2.191,4.555,14.061-7.032,26.366-25.791
		c7.413-11.32,14.821-22.66,22.215-34.149C82.783,245.91,84.958,242.43,87.124,238.955z"/>
	<path d="M22.818,256.553c0.978-1.464,1.984-2.896,2.961-4.36c12.56-18.623,21.126-34.644,19.144-35.838"/>
	<path d="M331.426,527.075c-0.948,1.418-1.891,2.772-2.842,4.17c-12.631,18.579-15.738,37.787-7.006,42.912
		c8.751,5.162,26.119-5.647,38.832-24.142c1.01-1.494,2.02-2.904,3.013-4.394c12.684-18.528,15.767-37.751,6.923-42.872
		C361.504,497.588,344.047,508.54,331.426,527.075z"/>
	<path d="M96.932,561.128c12.518-18.633,22.239-34.002,21.777-34.242"/>
	<path d="M451.655,522.939c-6.632-2.302-16.891,13.229-22.993,34.819c-0.723,2.501-1.406,5.047-2.121,7.542"/>
	<path d="M184.068,562.131c12.56-18.623,21.126-34.644,19.144-35.838"/>
	<path d="M27.818,487.614c0.978-1.463,1.984-2.895,2.961-4.359c12.56-18.623,21.126-34.645,19.144-35.838"/>
	<path d="M24.551,338.343c6.052,3.556,19.154-9.666,29.366-29.643c1.198-2.312,2.368-4.674,3.557-6.981"/>
</g>
</svg>
